<svg t="1595336782210" class="icon" style="width: 1em; height: 1em;vertical-align: middle;fill: currentColor;overflow: hidden;" viewBox="0 0 1024 1024" version="1.1" xmlns="http://www.w3.org/2000/svg" p-id="1057"><path d="M514.594 780.175c-159.059 0-259.024-73.524-314.879-135.207-54.577-60.257-78.814-118.437-78.814-130.384 0-17.622 38.948-78.824 78.634-123.563C259.105 323.87 361.506 243.82 511.05 243.82c147.456 0 249.545 78.016 309.225 143.461 42.578 46.683 82.83 108.551 82.83 127.304 0 12.818-27.26 81.011-90.607 145.68-76.838 78.444-179.851 119.911-297.903 119.911z m-3.54-482.588c-129.554 0-219.036 70.212-271.293 129.116-34.456 38.847-54.434 73.112-61.424 86.042l-1.459 2.705 1.29 2.785c8.015 17.373 26.646 52.257 61.419 90.644 70.618 77.984 163.149 117.523 275.018 117.523 104.736 0 192.046-34.91 259.484-103.77 43.602-44.51 64.943-87.695 72.097-104.196l1.19-2.748-1.427-2.626c-7.202-13.262-27.989-48.532-65.398-89.56-52.384-57.441-141.655-125.915-269.497-125.915z" fill="#fd7397" p-id="1058"></path><path d="M514.43 673.3c-89.47 0-162.26-72.78-162.26-162.24 0-89.472 72.79-162.262 162.26-162.262 89.466 0 162.251 72.79 162.251 162.261 0 89.461-72.785 162.24-162.25 162.24z m0-270.728c-59.823 0-108.487 48.664-108.487 108.487 0 59.813 48.664 108.472 108.488 108.472 59.818 0 108.482-48.659 108.482-108.472 0-59.823-48.664-108.487-108.482-108.487z" fill="#fd7397" p-id="1059"></path><path d="M479.304 514.615c-19.477 0-35.323-15.84-35.323-35.311 0-19.482 15.846-35.328 35.323-35.328s35.322 15.846 35.322 35.328c0 19.47-15.846 35.311-35.322 35.311z" fill="#fd7397" p-id="1060"></path></svg>