<svg width="22" height="22" viewBox="0 0 22 22" xmlns="http://www.w3.org/2000/svg"><g fill="none" fill-rule="evenodd" data-darkreader-inline-fill="" style="--darkreader-inline-fill:none;"><path d="M11.45 16.844a.688.688 0 010-.972l.217-.216a.688.688 0 01.972 0l2.287 2.285 5.455-5.454a.687.687 0 01.972 0l.216.216a.687.687 0 010 .972l-6.157 6.158a.688.688 0 01-.896.066l-.077-.066-2.989-2.99z" fill="#FB7299" fill-rule="nonzero" data-darkreader-inline-fill="" style="--darkreader-inline-fill:#fb6b94;"></path><path d="M15.103 1.847a.924.924 0 01.211 1.29l-1.156 1.608c.774.02 1.609.045 2.504.076 1.647.058 2.933 1.348 3.166 2.98.101.706.168 3.2.2 4.12a.63.63 0 11-1.26.043c-.03-.877-.093-3.326-.188-3.985-.147-1.027-.926-1.861-1.962-1.898-2.243-.08-4.1-.12-5.569-.12-1.468 0-3.324.04-5.567.12a2.143 2.143 0 00-2.045 1.837c-.14.971-.21 2.178-.21 3.618 0 1.728.101 3.21.302 4.443.162.997 1 1.746 2.01 1.796 1.719.085 3.573.128 5.56.128a.63.63 0 110 1.26 114.2 114.2 0 01-5.623-.13 3.403 3.403 0 01-3.19-2.852c-.213-1.306-.319-2.853-.319-4.645 0-1.495.074-2.76.222-3.796A3.403 3.403 0 015.438 4.82c.762-.027 1.48-.05 2.155-.067L6.496 3.11a.924.924 0 011.539-1.025l1.62 2.432a.927.927 0 01.098.192c.48-.005.929-.009 1.347-.009h-.104.108H11c.3 0 .617.002.95.005a.963.963 0 01.115-.216l1.748-2.431a.924.924 0 011.29-.211zm-5.51 5.756v3.106H7.776l-.14 1.361h2.016c0 1.735-.06 2.894-.161 3.48-.121.584-.636.907-1.553.967-.262 0-.525-.02-.807-.04l-.272-.978c.262.03.544.05.827.05.504 0 .786-.161.857-.484.07-.323.11-1.018.11-2.087H6.568l.283-3.166h1.704V8.5H6.658v-.898h2.934zm4.325-.453l.998.353a7.875 7.875 0 01-.685 1.3h1.17v4.245h-2.078v.777h2.47v.979l-.008.009h-2.464l-.004-.005a1.68 1.68 0 00-2.375-.094l-.099.099h-.948v-.988h2.4v-.777h-2.037V8.803h1.21a7.75 7.75 0 00-.756-1.25l.958-.323c.282.404.534.827.746 1.291l-.635.282h1.391c.282-.514.524-1.069.746-1.653zm.555 4.235h-1.15v.786h1.15v-.786zm-2.178 0h-1.1v.786h1.1v-.786zm0-1.694h-1.1v.826h1.1v-.826zm2.178 0h-1.15v.826h1.15v-.826z" fill="#999999" fill-rule="nonzero" data-darkreader-inline-fill="" style="--darkreader-inline-fill:#e8e6e3;"></path><path stroke="#FB7199" stroke-width="1.38" stroke-linecap="round" stroke-linejoin="round" d="M12.299 16.348l2.71 2.782 5.366-5.093" data-darkreader-inline-stroke="" style="--darkreader-inline-stroke:#fb6a94;"></path></g></svg>