<svg width="22" height="22" viewBox="0 0 22 22" xmlns="http://www.w3.org/2000/svg"><path d="M16.882 12.89a3.991 3.991 0 110 7.983 3.991 3.991 0 010-7.982zm-2.405 2.697a2.73 2.73 0 003.7 3.7l-3.7-3.7zm.626-13.74a.924.924 0 01.211 1.29l-1.158 1.61c.751.019 1.558.044 2.422.074a3.403 3.403 0 013.249 2.919c.148 1.036.222 2.3.222 3.796a.63.63 0 01-1.26 0c0-1.44-.07-2.647-.21-3.618a2.143 2.143 0 00-2.045-1.837 166.897 166.897 0 00-5.527-.12c-1.46.001-3.303.041-5.525.12a2.143 2.143 0 00-2.045 1.837c-.14.971-.21 2.178-.21 3.618 0 1.728.101 3.21.302 4.443.162.997 1 1.746 2.01 1.796 1.719.085 3.573.128 5.56.128a.63.63 0 110 1.26 114.2 114.2 0 01-5.623-.13 3.403 3.403 0 01-3.19-2.852c-.213-1.306-.319-2.853-.319-4.645 0-1.495.074-2.76.222-3.796A3.403 3.403 0 015.438 4.82c.762-.027 1.48-.05 2.155-.067L6.496 3.11a.924.924 0 011.468-1.118l.07.093 1.62 2.432a.927.927 0 01.099.192c.32-.004.626-.006.918-.008l.325-.001.252.001c.226 0 .46.003.702.005a.914.914 0 01.115-.217l1.748-2.431a.924.924 0 011.29-.211zm1.779 12.304c-.582 0-1.121.182-1.564.492l3.803 3.803a2.73 2.73 0 00-2.239-4.295zm-7.28-6.553v3.106H7.787l-.14 1.361h2.016c0 1.734-.06 2.894-.161 3.479-.121.585-.636.907-1.553.968-.262 0-.525-.02-.807-.04l-.272-.979c.262.03.544.05.827.05.504 0 .786-.16.857-.483.07-.323.11-1.019.11-2.087H6.578l.283-3.167h1.704v-1.31H6.668v-.898h2.934zm4.326-.454l.998.353a7.875 7.875 0 01-.685 1.301h1.17v3.26a5.032 5.032 0 00-1.797.984l-.28.001-.001.258a5.053 5.053 0 00-1.048 1.507h-2.38v-.988h2.4v-.777h-2.037V8.798h1.21a7.75 7.75 0 00-.756-1.25l.958-.323c.282.403.534.827.746 1.29l-.635.283h1.391c.282-.514.524-1.069.746-1.654zm.555 4.235h-1.15v.787h1.15v-.787zm-2.178 0h-1.1v.787h1.1v-.787zm0-1.694h-1.1v.827h1.1v-.827zm2.178 0h-1.15v.827h1.15v-.827z" fill="#999999" fill-rule="evenodd"></path></svg>